<svg xmlns="http://www.w3.org/2000/svg" viewBox="0 0 1200 630" width="1200" height="630">
  <defs>
    <pattern id="dots" width="28" height="28" patternUnits="userSpaceOnUse">
      <circle cx="2" cy="2" r="1.4" fill="#FFFFFF" fill-opacity=".07"/>
    </pattern>
    <radialGradient id="glow" cx="78%" cy="40%" r="60%">
      <stop offset="0" stop-color="#96271C" stop-opacity=".55"/>
      <stop offset=".55" stop-color="#7A1E15" stop-opacity=".18"/>
      <stop offset="1" stop-color="#14171C" stop-opacity="0"/>
    </radialGradient>
    <filter id="shadow" x="-20%" y="-20%" width="140%" height="150%">
      <feDropShadow dx="0" dy="30" stdDeviation="28" flood-color="#000" flood-opacity=".5"/>
    </filter>
    <clipPath id="win"><rect x="430" y="92" width="660" height="446" rx="20"/></clipPath>
    <linearGradient id="fade" x1="0" x2="1">
      <stop offset="0" stop-color="#14171C" stop-opacity=".0"/>
      <stop offset="1" stop-color="#14171C" stop-opacity=".55"/>
    </linearGradient>
  </defs>

  <rect width="1200" height="630" fill="#14171C"/>
  <rect width="1200" height="630" fill="url(#dots)"/>
  <rect width="1200" height="630" fill="url(#glow)"/>

  <!-- Legacy intranet: grey, cramped, table-heavy -->
  <g transform="rotate(-4 330 330)" opacity=".9">
    <rect x="96" y="168" width="440" height="320" rx="10" fill="#23282F" stroke="#FFFFFF" stroke-opacity=".08"/>
    <rect x="96" y="168" width="440" height="30" rx="10" fill="#2C323B"/>
    <rect x="96" y="188" width="440" height="10" fill="#2C323B"/>
    <rect x="112" y="179" width="70" height="8" rx="2" fill="#4A515C"/>
    <!-- left link column -->
    <g fill="#3A414B">
      <rect x="112" y="214" width="96" height="7" rx="1"/>
      <rect x="112" y="230" width="80" height="7" rx="1"/>
      <rect x="112" y="246" width="90" height="7" rx="1"/>
      <rect x="112" y="262" width="70" height="7" rx="1"/>
      <rect x="112" y="278" width="88" height="7" rx="1"/>
      <rect x="112" y="294" width="76" height="7" rx="1"/>
      <rect x="112" y="310" width="92" height="7" rx="1"/>
      <rect x="112" y="326" width="64" height="7" rx="1"/>
    </g>
    <!-- dense table -->
    <g stroke="#3A414B" stroke-width="1.2" fill="none">
      <rect x="224" y="212" width="296" height="200"/>
      <line x1="224" y1="236" x2="520" y2="236"/>
      <line x1="224" y1="260" x2="520" y2="260"/>
      <line x1="224" y1="284" x2="520" y2="284"/>
      <line x1="224" y1="308" x2="520" y2="308"/>
      <line x1="224" y1="332" x2="520" y2="332"/>
      <line x1="224" y1="356" x2="520" y2="356"/>
      <line x1="224" y1="380" x2="520" y2="380"/>
      <line x1="300" y1="212" x2="300" y2="412"/>
      <line x1="396" y1="212" x2="396" y2="412"/>
    </g>
    <g fill="#3A414B">
      <rect x="232" y="220" width="50" height="7"/><rect x="308" y="220" width="70" height="7"/><rect x="404" y="220" width="90" height="7"/>
      <rect x="232" y="244" width="40" height="6"/><rect x="308" y="244" width="60" height="6"/><rect x="404" y="244" width="80" height="6"/>
      <rect x="232" y="268" width="56" height="6"/><rect x="308" y="268" width="52" height="6"/><rect x="404" y="268" width="96" height="6"/>
      <rect x="232" y="292" width="44" height="6"/><rect x="308" y="292" width="74" height="6"/><rect x="404" y="292" width="70" height="6"/>
      <rect x="232" y="316" width="52" height="6"/><rect x="308" y="316" width="64" height="6"/><rect x="404" y="316" width="88" height="6"/>
      <rect x="232" y="340" width="38" height="6"/><rect x="308" y="340" width="58" height="6"/><rect x="404" y="340" width="62" height="6"/>
      <rect x="232" y="364" width="48" height="6"/><rect x="308" y="364" width="70" height="6"/><rect x="404" y="364" width="84" height="6"/>
      <rect x="232" y="388" width="42" height="6"/><rect x="308" y="388" width="56" height="6"/><rect x="404" y="388" width="74" height="6"/>
      <rect x="112" y="430" width="408" height="40"/>
    </g>
  </g>
  <rect x="80" y="140" width="400" height="380" fill="url(#fade)"/>

  <!-- Transformation path -->
  <path d="M292 150 C 318 80, 396 60, 452 78" fill="none" stroke="#E8A04C" stroke-width="2.5" stroke-dasharray="2 9" stroke-linecap="round"/>
  <path d="M440 68 L456 79 L438 88" fill="none" stroke="#E8A04C" stroke-width="2.5" stroke-linecap="round" stroke-linejoin="round"/>

  <!-- Modern collaboration hub -->
  <g filter="url(#shadow)">
    <rect x="430" y="92" width="660" height="446" rx="20" fill="#FAF7F4"/>
  </g>
  <g clip-path="url(#win)">
    <rect x="430" y="92" width="660" height="40" fill="#F3EEE8"/>
    <circle cx="454" cy="112" r="5" fill="#E4DCD3"/>
    <circle cx="472" cy="112" r="5" fill="#E4DCD3"/>
    <circle cx="490" cy="112" r="5" fill="#E4DCD3"/>
    <rect x="620" y="103" width="280" height="18" rx="9" fill="#FFFFFF" stroke="#E4DCD3"/>

    <!-- nav -->
    <rect x="460" y="148" width="24" height="24" rx="7" fill="#C0392B"/>
    <rect x="492" y="152" width="40" height="6" rx="3" fill="#14171C"/>
    <rect x="492" y="163" width="56" height="4" rx="2" fill="#9AA1AD"/>
    <rect x="720" y="157" width="44" height="6" rx="3" fill="#C9C2B8"/>
    <rect x="780" y="157" width="52" height="6" rx="3" fill="#C9C2B8"/>
    <rect x="848" y="157" width="40" height="6" rx="3" fill="#C9C2B8"/>
    <rect x="904" y="157" width="48" height="6" rx="3" fill="#C9C2B8"/>
    <rect x="996" y="147" width="66" height="26" rx="13" fill="#C0392B"/>
    <rect x="1010" y="158" width="38" height="4" rx="2" fill="#FFFFFF"/>

    <!-- hero band -->
    <rect x="460" y="188" width="602" height="124" rx="14" fill="#14171C"/>
    <rect x="484" y="212" width="28" height="3" fill="#E8A04C"/>
    <rect x="520" y="211" width="70" height="5" rx="2" fill="#E8A04C" fill-opacity=".7"/>
    <rect x="484" y="228" width="268" height="16" rx="4" fill="#FAF7F4"/>
    <rect x="484" y="251" width="196" height="16" rx="4" fill="#FAF7F4"/>
    <rect x="484" y="280" width="230" height="6" rx="3" fill="#9AA1AD"/>
    <rect x="484" y="292" width="180" height="6" rx="3" fill="#9AA1AD"/>
    <g stroke="#C0392B" stroke-opacity=".75" stroke-width="1.6">
      <line x1="870" y1="216" x2="930" y2="240"/>
      <line x1="930" y1="240" x2="996" y2="214"/>
      <line x1="930" y1="240" x2="912" y2="290"/>
      <line x1="930" y1="240" x2="986" y2="280"/>
      <line x1="996" y1="214" x2="1040" y2="246"/>
      <line x1="986" y1="280" x2="1040" y2="246"/>
      <line x1="912" y1="290" x2="986" y2="280"/>
      <line x1="870" y1="216" x2="912" y2="290"/>
    </g>
    <g fill="#E8A04C">
      <circle cx="870" cy="216" r="3.5"/><circle cx="996" cy="214" r="3.5"/>
      <circle cx="912" cy="290" r="3.5"/><circle cx="986" cy="280" r="3.5"/>
      <circle cx="1040" cy="246" r="3.5"/>
    </g>
    <circle cx="930" cy="240" r="7" fill="#FAF7F4"/>

    <!-- cards -->
    <g>
      <rect x="460" y="328" width="192" height="92" rx="12" fill="#FFFFFF" stroke="#E4DCD3"/>
      <rect x="476" y="344" width="26" height="26" rx="7" fill="#F9E9E4"/>
      <path d="M483 352h12M483 357h12M483 362h8" stroke="#C0392B" stroke-width="2" stroke-linecap="round"/>
      <rect x="476" y="382" width="112" height="8" rx="3" fill="#14171C"/>
      <rect x="476" y="398" width="150" height="5" rx="2" fill="#C9C2B8"/>

      <rect x="664" y="328" width="192" height="92" rx="12" fill="#FFFFFF" stroke="#E4DCD3"/>
      <rect x="680" y="344" width="26" height="26" rx="7" fill="#F9E9E4"/>
      <circle cx="690" cy="355" r="4" fill="none" stroke="#C0392B" stroke-width="2"/>
      <path d="M684 365c2-4 10-4 12 0" fill="none" stroke="#C0392B" stroke-width="2" stroke-linecap="round"/>
      <circle cx="699" cy="353" r="3" fill="none" stroke="#C0392B" stroke-width="2"/>
      <rect x="680" y="382" width="100" height="8" rx="3" fill="#14171C"/>
      <rect x="680" y="398" width="140" height="5" rx="2" fill="#C9C2B8"/>

      <rect x="868" y="328" width="194" height="92" rx="12" fill="#FFFFFF" stroke="#E4DCD3"/>
      <rect x="884" y="344" width="26" height="26" rx="7" fill="#F9E9E4"/>
      <circle cx="895" cy="355" r="5" fill="none" stroke="#C0392B" stroke-width="2"/>
      <path d="M899 359l5 5" stroke="#C0392B" stroke-width="2" stroke-linecap="round"/>
      <rect x="884" y="382" width="118" height="8" rx="3" fill="#14171C"/>
      <rect x="884" y="398" width="146" height="5" rx="2" fill="#C9C2B8"/>
    </g>

    <!-- calendar & events module -->
    <rect x="460" y="434" width="296" height="90" rx="12" fill="#FFFFFF" stroke="#E4DCD3"/>
    <rect x="476" y="448" width="70" height="6" rx="3" fill="#14171C"/>
    <g fill="#F3EEE8">
      <rect x="476" y="464" width="30" height="20" rx="4"/><rect x="514" y="464" width="30" height="20" rx="4"/>
      <rect x="552" y="464" width="30" height="20" rx="4"/><rect x="628" y="464" width="30" height="20" rx="4"/>
      <rect x="666" y="464" width="30" height="20" rx="4"/><rect x="704" y="464" width="36" height="20" rx="4"/>
      <rect x="476" y="490" width="30" height="20" rx="4"/><rect x="514" y="490" width="30" height="20" rx="4"/>
      <rect x="552" y="490" width="30" height="20" rx="4"/><rect x="590" y="490" width="30" height="20" rx="4"/>
      <rect x="628" y="490" width="30" height="20" rx="4"/><rect x="704" y="490" width="36" height="20" rx="4"/>
    </g>
    <rect x="590" y="464" width="30" height="20" rx="4" fill="#C0392B"/>
    <rect x="666" y="490" width="30" height="20" rx="4" fill="#F5C98F"/>

    <!-- analytics module -->
    <rect x="768" y="434" width="294" height="90" rx="12" fill="#FFFFFF" stroke="#E4DCD3"/>
    <rect x="784" y="448" width="64" height="6" rx="3" fill="#14171C"/>
    <rect x="784" y="464" width="70" height="5" rx="2.5" fill="#14171C" fill-opacity=".8"/>
    <rect x="866" y="464" width="150" height="5" rx="2.5" fill="#F3EEE8"/><rect x="866" y="464" width="138.0" height="5" rx="2.5" fill="#E8A04C"/>
    <rect x="1026" y="464" width="22" height="5" rx="2.5" fill="#C9C2B8"/>
    <rect x="784" y="479" width="56" height="5" rx="2.5" fill="#14171C" fill-opacity=".8"/>
    <rect x="866" y="479" width="150" height="5" rx="2.5" fill="#F3EEE8"/><rect x="866" y="479" width="105.0" height="5" rx="2.5" fill="#9AA1AD"/>
    <rect x="1026" y="479" width="22" height="5" rx="2.5" fill="#C9C2B8"/>
    <rect x="784" y="494" width="64" height="5" rx="2.5" fill="#14171C" fill-opacity=".8"/>
    <rect x="866" y="494" width="150" height="5" rx="2.5" fill="#F3EEE8"/><rect x="866" y="494" width="81.0" height="5" rx="2.5" fill="#9AA1AD"/>
    <rect x="1026" y="494" width="22" height="5" rx="2.5" fill="#C9C2B8"/>
    <rect x="784" y="509" width="48" height="5" rx="2.5" fill="#14171C" fill-opacity=".8"/>
    <rect x="866" y="509" width="150" height="5" rx="2.5" fill="#F3EEE8"/><rect x="866" y="509" width="57.0" height="5" rx="2.5" fill="#9AA1AD"/>
    <rect x="1026" y="509" width="22" height="5" rx="2.5" fill="#C9C2B8"/>
  </g>

  <!-- sparkles -->
  <path d="M1112 70l5 13 13 5-13 5-5 13-5-13-13-5 13-5z" fill="#E8A04C"/>
  <path d="M1140 118l3 7 7 3-7 3-3 7-3-7-7-3 7-3z" fill="#F5C98F"/>
</svg>
